<svg width="162" height="190" viewBox="0 0 162 190" fill="none" xmlns="http://www.w3.org/2000/svg">
<path d="M122.067 186.701L43.9744 184.479C43.9744 184.479 49.8524 149.262 30.993 139.489C18.1385 132.822 6.73013 101.685 9.97548 80.4967C10.0196 80.2148 10.0638 79.9329 10.1135 79.6565C11.7582 70.1709 16.4607 62.8245 25.4516 60.829C54.5162 54.3836 75.2577 59.3807 75.2577 59.3807C75.2577 59.3807 80.0595 59.4415 87.1739 60.7792C87.4278 60.8235 87.6817 60.8732 87.9356 60.9285C108.075 64.8808 145.303 78.9545 146.915 128.925C149.134 197.58 122.067 186.69 122.067 186.69V186.701Z" fill="url(#paint0_linear_13_238)"/>
<path d="M87.1739 60.7848C87.0414 64.3667 86.2301 67.9266 84.7509 71.3096C81.6822 78.3243 76.0856 83.6807 68.9988 86.3948C47.7716 94.5317 23.001 86.4612 10.4722 77.7108C10.4225 77.9871 9.42904 83.233 9.38489 83.5149C14.9318 87.318 42.0812 90.9829 47.2307 90.9829C55.0515 90.9829 62.5799 89.6839 69.2748 87.1135C76.5547 84.3219 82.3003 78.8163 85.4518 71.6136C86.9586 68.1754 87.7865 64.5657 87.9355 60.9285C87.6816 60.8732 87.4278 60.8235 87.1739 60.7792V60.7848Z" fill="#2F2E41"/>
<path d="M92.947 65.3452L80.501 33.9973C80.501 33.9973 95.4417 8.34848 83.7022 5.50169C71.9627 2.64937 59.8699 17.9668 59.8699 17.9668C59.8699 17.9668 37.4615 10.1284 28.9287 16.5406C28.9287 16.5406 14.6999 -3.40905 6.1671 0.510128C-2.37126 4.42931 9.20271 32.6706 9.20271 32.6706C9.20271 32.6706 -8.41488 58.5737 5.10188 73.5318C18.6186 88.4954 69.479 100.607 92.9525 65.3396L92.947 65.3452Z" fill="url(#paint1_linear_13_238)"/>
<mask id="path-4-inside-1_13_238" fill="white">
<path d="M119.644 167.94C123.883 169.831 128.309 171.754 132.945 171.572C137.582 171.39 142.455 168.399 143.178 163.811C143.554 161.44 142.814 158.902 143.719 156.68C144.939 153.695 148.869 152.54 151.921 153.563C154.979 154.585 157.219 157.227 158.831 160.019C161.845 165.248 163.048 172.114 159.819 177.21C157.021 181.627 151.711 183.628 146.777 185.342C140.198 187.625 132.857 189.885 126.482 187.083C120.074 184.264 116.581 176.121 118.954 169.527"/>
</mask>
<path d="M119.644 167.94C123.883 169.831 128.309 171.754 132.945 171.572C137.582 171.39 142.455 168.399 143.178 163.811C143.554 161.44 142.814 158.902 143.719 156.68C144.939 153.695 148.869 152.54 151.921 153.563C154.979 154.585 157.219 157.227 158.831 160.019C161.845 165.248 163.048 172.114 159.819 177.21C157.021 181.627 151.711 183.628 146.777 185.342C140.198 187.625 132.857 189.885 126.482 187.083C120.074 184.264 116.581 176.121 118.954 169.527" fill="#01FFBE"/>
<path d="M143.178 163.811L141.203 163.498L141.203 163.5L143.178 163.811ZM143.719 156.68L141.868 155.924L141.867 155.926L143.719 156.68ZM151.921 153.563L151.285 155.459L151.286 155.459L151.921 153.563ZM158.831 160.019L160.564 159.02L160.563 159.019L158.831 160.019ZM159.819 177.21L161.508 178.281L161.508 178.281L159.819 177.21ZM146.777 185.342L147.432 187.231L147.433 187.231L146.777 185.342ZM126.482 187.083L125.677 188.914L125.677 188.914L126.482 187.083ZM118.829 169.767C122.996 171.625 127.846 173.774 133.024 173.57L132.867 169.574C128.772 169.735 124.769 168.036 120.459 166.114L118.829 169.767ZM133.024 173.57C138.217 173.366 144.228 169.998 145.154 164.122L141.203 163.5C140.682 166.8 136.947 169.413 132.867 169.574L133.024 173.57ZM145.154 164.124C145.378 162.708 145.271 161.204 145.25 160.149C145.225 158.972 145.285 158.139 145.571 157.435L141.867 155.926C141.249 157.444 141.225 158.991 141.25 160.231C141.278 161.592 141.354 162.543 141.203 163.498L145.154 164.124ZM145.571 157.437C145.918 156.586 146.693 155.894 147.797 155.505C148.91 155.113 150.197 155.094 151.285 155.459L152.556 151.666C150.592 151.008 148.389 151.056 146.468 151.732C144.54 152.411 142.74 153.789 141.868 155.924L145.571 157.437ZM151.286 155.459C153.652 156.25 155.575 158.379 157.099 161.019L160.563 159.019C158.864 156.076 156.305 152.92 152.555 151.666L151.286 155.459ZM157.098 161.018C159.93 165.932 160.792 171.938 158.129 176.14L161.508 178.281C165.304 172.29 163.759 164.565 160.564 159.02L157.098 161.018ZM158.129 176.14C155.763 179.875 151.173 181.698 146.121 183.452L147.433 187.231C152.25 185.558 158.278 183.379 161.508 178.281L158.129 176.14ZM146.121 183.452C142.832 184.594 139.513 185.67 136.266 186.14C133.038 186.608 130.019 186.453 127.287 185.252L125.677 188.914C129.321 190.515 133.159 190.632 136.84 190.099C140.502 189.568 144.143 188.373 147.432 187.231L146.121 183.452ZM127.288 185.252C121.843 182.857 118.818 175.811 120.836 170.204L117.072 168.849C114.343 176.432 118.306 185.671 125.677 188.914L127.288 185.252Z" fill="#2F2E41" mask="url(#path-4-inside-1_13_238)"/>
<path d="M49.5266 51.2549C49.5266 51.2549 41.8658 48.187 36.8929 52.0233L42.6385 60.8456L49.5321 51.2604L49.5266 51.2549Z" fill="#2F2E41"/>
<path d="M9.3186 91.5191L23.4866 167.072C23.4866 167.072 2.04416 188.935 29.6131 188.548C57.1819 188.166 49.1403 173.977 49.1403 173.977L40.3315 108.395" fill="#01FF8C"/>
<path d="M28.9176 189.106C21.45 189.106 16.9352 187.392 15.4892 184.004C12.8565 177.835 21.4279 168.432 22.896 166.884L13.3698 110.402L14.4571 110.219L24.0772 167.255L23.8785 167.454C23.7791 167.553 13.9769 177.653 16.5047 183.567C17.8017 186.608 22.2006 188.094 29.6075 187.989C39.901 187.846 46.5352 185.684 48.7981 181.743C50.8347 178.194 48.6822 174.281 48.6601 174.242L48.6105 174.148L48.5939 174.043L42.4675 128.406L43.5603 128.257L49.6757 173.794C50.04 174.485 51.9441 178.471 49.764 182.285C47.2638 186.652 40.4861 188.946 29.6241 189.095C29.3867 189.095 29.1549 189.095 28.9231 189.095L28.9176 189.106Z" fill="#2F2E41"/>
<path d="M45.3099 91.5191L59.478 167.072C59.478 167.072 38.0355 188.935 65.6044 188.548C93.1733 188.166 85.1317 173.977 85.1317 173.977L76.3229 108.395" fill="#01FF93"/>
<path d="M64.909 189.106C57.4414 189.106 52.9266 187.392 51.4806 184.004C48.8479 177.846 57.4028 168.454 58.882 166.89L53.1916 136.487L54.2789 136.283L60.0741 167.249L59.8699 167.454C59.7706 167.553 49.9683 177.653 52.4961 183.567C53.7932 186.608 58.1976 188.1 65.5989 187.989C75.898 187.846 82.5377 185.684 84.7951 181.732C86.8317 178.172 84.6737 174.281 84.6516 174.242L84.5964 174.148L75.7765 108.462L76.8694 108.312L85.6616 173.794C86.0259 174.485 87.93 178.471 85.7499 182.285C83.2497 186.652 76.472 188.946 65.61 189.095C65.3727 189.095 65.1408 189.095 64.909 189.095V189.106Z" fill="#2F2E41"/>
<defs>
<linearGradient id="paint0_linear_13_238" x1="9.3794" y1="122.17" x2="146.81" y2="122.17" gradientUnits="userSpaceOnUse">
<stop stop-color="#00FF85"/>
<stop offset="1" stop-color="#00FFC2"/>
</linearGradient>
<linearGradient id="paint1_linear_13_238" x1="86.0976" y1="51.6916" x2="-0.0036042" y2="53.6204" gradientUnits="userSpaceOnUse">
<stop stop-color="#00FFC2"/>
<stop offset="1" stop-color="#00FF85"/>
</linearGradient>
</defs>
</svg>
